<svg width="16" height="16" viewBox="0 0 16 16" fill="none" xmlns="http://www.w3.org/2000/svg">
<path d="M11 3C12.1046 3 13 3.89543 13 5V11C13 12.1046 12.1046 13 11 13H5C3.89543 13 3 12.1046 3 11V5C3 3.89543 3.89543 3 5 3H11ZM6.5 4C6.22386 4 6 4.22386 6 4.5V9.0957C6.00015 9.28125 6.19527 9.40195 6.36133 9.31934L7.77637 8.61133C7.91704 8.54106 8.08296 8.54106 8.22363 8.61133L9.63867 9.31934C9.80473 9.40195 9.99985 9.28125 10 9.0957V4.5C10 4.22386 9.77614 4 9.5 4H6.5Z" fill="currentColor"/>
</svg>
