<svg width="14" height="14" viewBox="0 0 14 14" fill="none" xmlns="http://www.w3.org/2000/svg">
<g clip-path="url(#clip0_2635_3545)">
<path fill-rule="evenodd" clip-rule="evenodd" d="M2.75736 9.82843C2.36682 10.219 2.36684 10.8521 2.75736 11.2426C3.14788 11.6332 3.78104 11.6332 4.17157 11.2426L6.99996 8.41426L9.82838 11.2427C10.2189 11.6332 10.8521 11.6332 11.2426 11.2427C11.6331 10.8522 11.6331 10.219 11.2426 9.82848L8.41417 7.00005L11.2426 4.17158C11.6332 3.78105 11.6332 3.14789 11.2426 2.75737C10.8521 2.36684 10.219 2.36684 9.82843 2.75737L6.99996 5.58583L4.17153 2.75741C3.78101 2.36688 3.14784 2.36689 2.75732 2.75741C2.36679 3.14794 2.36679 3.7811 2.75732 4.17162L5.58574 7.00005L2.75736 9.82843Z" fill="currentColor"/>
</g>
</svg>
