<svg width="14" height="14" viewBox="0 0 14 14" fill="none" xmlns="http://www.w3.org/2000/svg">
<g clip-path="url(#clip0_2875_2287)">
<path d="M13.3971 4.61425C13.3971 5.16654 12.9488 5.61484 12.3965 5.61484H9.3968C9.08211 5.61468 8.80177 5.46863 8.61857 5.24126C8.47606 5.06844 8.39 4.84676 8.39 4.60528V1.6056C8.39007 1.05347 8.83778 0.605861 9.38989 0.605704C9.94214 0.605704 10.3897 1.05337 10.3898 1.6056V2.19808L12.295 0.292892C12.6855 -0.0976318 13.3187 -0.0976318 13.7092 0.292892C14.0996 0.683423 14.0997 1.31661 13.7092 1.70711L11.8019 3.61436H12.3972C12.9492 3.61441 13.3967 4.0623 13.3971 4.61425Z" fill="currentColor" style="fill:currentColor;fill-opacity:1;"/>
<path d="M0.604976 4.61425C0.604976 5.16654 1.05328 5.61484 1.60556 5.61484H4.60524C4.91992 5.61468 5.20027 5.46863 5.38347 5.24126C5.52598 5.06844 5.61204 4.84676 5.61204 4.60528V1.6056C5.61197 1.05347 5.16425 0.605861 4.61214 0.605704C4.0599 0.605704 3.61232 1.05337 3.61225 1.6056V2.19808L1.70707 0.292892C1.31654 -0.0976318 0.683379 -0.0976318 0.292855 0.292892C-0.0975899 0.683423 -0.097643 1.31661 0.292855 1.70711L2.20011 3.61436H1.60487C1.05284 3.61441 0.605326 4.0623 0.604976 4.61425Z" fill="currentColor" style="fill:currentColor;fill-opacity:1;"/>
<path d="M0.604976 9.39058C0.604976 8.8383 1.05328 8.39 1.60556 8.39H4.60524C4.91992 8.39016 5.20027 8.53621 5.38347 8.76358C5.52598 8.93639 5.61204 9.15807 5.61204 9.39956V12.3992C5.61197 12.9514 5.16425 13.399 4.61214 13.3991C4.0599 13.3991 3.61232 12.9515 3.61225 12.3992V11.8068L1.70707 13.7119C1.31654 14.1025 0.683379 14.1025 0.292855 13.7119C-0.0975899 13.3214 -0.097643 12.6882 0.292855 12.2977L2.20011 10.3905H1.60487C1.05284 10.3904 0.605326 9.94254 0.604976 9.39058Z" fill="currentColor" style="fill:currentColor;fill-opacity:1;"/>
<path d="M13.3971 9.39058C13.3971 8.8383 12.9488 8.39 12.3965 8.39H9.3968C9.08211 8.39016 8.80177 8.53621 8.61857 8.76358C8.47606 8.93639 8.39 9.15807 8.39 9.39956V12.3992C8.39007 12.9514 8.83778 13.399 9.38989 13.3991C9.94214 13.3991 10.3897 12.9515 10.3898 12.3992V11.8068L12.295 13.7119C12.6855 14.1025 13.3187 14.1025 13.7092 13.7119C14.0996 13.3214 14.0997 12.6882 13.7092 12.2977L11.8019 10.3905H12.3972C12.9492 10.3904 13.3967 9.94254 13.3971 9.39058Z" fill="currentColor" style="fill:currentColor;fill-opacity:1;"/>
</g>
<defs>
<clipPath id="clip0_2875_2287">
<rect width="14" height="14" fill="white" style="fill:white;fill-opacity:1;"/>
</clipPath>
</defs>
</svg>
