<svg width="14" height="14" viewBox="0 0 14 14" fill="none" xmlns="http://www.w3.org/2000/svg">
<g clip-path="url(#clip0_2865_2232)">
<path d="M8.99497 1.00058C8.99497 0.448299 9.44327 0 9.99556 0H12.9952C13.3099 0.000160034 13.5903 0.146211 13.7735 0.373579C13.916 0.546395 14.002 0.768075 14.002 1.00956V4.00924C14.002 4.56137 13.5543 5.00898 13.0021 5.00913C12.4499 5.00913 12.0023 4.56147 12.0022 4.00924V3.41676L10.0971 5.32195C9.70654 5.71247 9.07338 5.71247 8.68285 5.32195C8.29241 4.93141 8.29236 4.29823 8.68285 3.90773L10.5901 2.00048H9.99487C9.44284 2.00043 8.99532 1.55254 8.99497 1.00058Z" fill="currentColor" style="fill:currentColor;fill-opacity:1;"/>
<path d="M5.00706 1.00058C5.00706 0.448299 4.55876 0 4.00648 0H1.0068C0.692114 0.000160034 0.411767 0.146211 0.228567 0.373579C0.0860578 0.546395 0 0.768075 0 1.00956V4.00924C6.78753e-05 4.56137 0.447784 5.00898 0.999893 5.00913C1.55214 5.00913 1.99972 4.56147 1.99979 4.00924V3.41676L3.90497 5.32195C4.29549 5.71247 4.92866 5.71247 5.31918 5.32195C5.70963 4.93141 5.70968 4.29823 5.31918 3.90773L3.41193 2.00048H4.00717C4.55919 2.00043 5.00671 1.55254 5.00706 1.00058Z" fill="currentColor" style="fill:currentColor;fill-opacity:1;"/>
<path d="M5.00706 13.0043C5.00706 13.5565 4.55876 14.0048 4.00648 14.0048H1.0068C0.692114 14.0047 0.411767 13.8586 0.228567 13.6313C0.0860578 13.4584 0 13.2368 0 12.9953V9.9956C6.78753e-05 9.44347 0.447784 8.99586 0.999893 8.9957C1.55214 8.9957 1.99972 9.44337 1.99979 9.9956V10.5881L3.90497 8.68289C4.29549 8.29237 4.92866 8.29237 5.31918 8.68289C5.70963 9.07342 5.70968 9.70661 5.31918 10.0971L3.41193 12.0044H4.00717C4.55919 12.0044 5.00671 12.4523 5.00706 13.0043Z" fill="currentColor" style="fill:currentColor;fill-opacity:1;"/>
<path d="M8.99497 13.0043C8.99497 13.5565 9.44327 14.0048 9.99556 14.0048H12.9952C13.3099 14.0047 13.5903 13.8586 13.7735 13.6313C13.916 13.4584 14.002 13.2368 14.002 12.9953V9.9956C14.002 9.44347 13.5543 8.99586 13.0021 8.9957C12.4499 8.9957 12.0023 9.44337 12.0022 9.9956V10.5881L10.0971 8.68289C9.70654 8.29237 9.07338 8.29237 8.68285 8.68289C8.29241 9.07342 8.29236 9.70661 8.68285 10.0971L10.5901 12.0044H9.99487C9.44284 12.0044 8.99532 12.4523 8.99497 13.0043Z" fill="currentColor" style="fill:currentColor;fill-opacity:1;"/>
</g>
<defs>
<clipPath id="clip0_2865_2232">
<rect width="14" height="14" fill="white" style="fill:white;fill-opacity:1;"/>
</clipPath>
</defs>
</svg>
