<svg width="14" height="14" viewBox="0 0 14 14" fill="none" xmlns="http://www.w3.org/2000/svg">
<path d="M6.34339 1.39965C6.60438 0.866784 7.39562 0.866784 7.65661 1.39965L8.8978 3.93372C9.00351 4.14955 9.21737 4.29838 9.46433 4.32799L12.3639 4.67562C12.9737 4.74872 13.2182 5.46952 12.7697 5.87195L10.6372 7.78573C10.4556 7.94873 10.3739 8.18954 10.4208 8.42367L10.9717 11.1726C11.0875 11.7506 10.4474 12.1961 9.90928 11.912L7.35014 10.5607C7.13217 10.4456 6.86783 10.4456 6.64986 10.5607L4.09072 11.912C3.55258 12.1961 2.91246 11.7506 3.0283 11.1726L3.57916 8.42367C3.62608 8.18954 3.54439 7.94873 3.36276 7.78573L1.23026 5.87195C0.781837 5.46952 1.02634 4.74872 1.63607 4.67562L4.53567 4.32799C4.78263 4.29838 4.99649 4.14955 5.1022 3.93372L6.34339 1.39965Z" fill="currentColor"/>
</svg>
