<svg width="14" height="14" viewBox="0 0 14 14" fill="none" xmlns="http://www.w3.org/2000/svg">
<path d="M5.82709 1.22031C6.6779 0.923646 7.25659 0.929271 8.10834 1.22226C8.28529 1.28333 8.40794 1.44526 8.42767 1.63144L8.50887 2.40014C8.51296 2.43877 8.53908 2.47146 8.57565 2.4846C9.12387 2.68153 9.62546 2.97629 10.0594 3.34777C10.0894 3.3734 10.1314 3.37969 10.1673 3.36333L10.9042 3.02695C11.075 2.94891 11.2766 2.97187 11.4189 3.09433C12.101 3.68273 12.3854 4.18691 12.5576 5.07089C12.5932 5.25466 12.5146 5.44117 12.3632 5.55136L11.6928 6.03856C11.6615 6.06128 11.6462 6.09998 11.6529 6.13806C11.6999 6.40606 11.7255 6.68212 11.7255 6.96347C11.7255 7.24471 11.7 7.52031 11.653 7.78815C11.6463 7.82661 11.6619 7.86566 11.6937 7.88828L12.4355 8.41562C12.5998 8.53263 12.6803 8.73841 12.6279 8.9332C12.4111 9.73632 12.1217 10.2374 11.5185 10.8492C11.3772 10.9925 11.1605 11.0283 10.9765 10.9469L10.146 10.5782C10.1105 10.5624 10.0692 10.5687 10.0395 10.5938C9.61438 10.9539 9.12567 11.2404 8.59192 11.4344C8.55553 11.4476 8.52957 11.4802 8.5255 11.5187L8.4306 12.4166C8.40927 12.6166 8.26965 12.7865 8.07513 12.8375C7.24375 13.054 6.66499 13.0541 5.86127 12.8404C5.66623 12.7885 5.528 12.6165 5.50873 12.4156L5.42401 11.5256C5.42029 11.4866 5.39407 11.4534 5.35717 11.4401C4.82678 11.2493 4.34036 10.9667 3.91641 10.6119C3.88675 10.587 3.84557 10.5809 3.81024 10.5967L3.02435 10.9469C2.84037 11.0286 2.62383 10.9924 2.48236 10.8492C1.87907 10.2374 1.58981 9.73627 1.37299 8.9332C1.32052 8.73823 1.40077 8.5326 1.56537 8.41562L2.24705 7.93064C2.27912 7.90783 2.29473 7.86835 2.28761 7.82964C2.23596 7.54886 2.20897 7.25912 2.20892 6.96347C2.20892 6.66765 2.23608 6.37751 2.28776 6.09655C2.29481 6.05823 2.27958 6.01911 2.24807 5.99619L1.63666 5.55136C1.48547 5.44111 1.40668 5.25458 1.44232 5.07089C1.61447 4.18667 1.89855 3.68289 2.58099 3.09433C2.72342 2.97152 2.92562 2.94866 3.09662 3.02695L3.79001 3.34393C3.82567 3.36023 3.86752 3.35411 3.89746 3.32879C4.32988 2.96314 4.82825 2.67348 5.37244 2.47985C5.40953 2.46666 5.43592 2.43338 5.43963 2.3942L5.51166 1.63339C5.52935 1.44623 5.64962 1.28229 5.82709 1.22031ZM6.96771 5.05917C5.91663 5.05917 5.06452 5.91144 5.06439 6.96249C5.06439 8.01366 5.91655 8.86581 6.96771 8.86581C8.01866 8.86556 8.87103 8.0135 8.87103 6.96249C8.8709 5.91159 8.01858 5.05943 6.96771 5.05917Z" fill="currentColor"/>
</svg>
