<svg width="14" height="14" viewBox="0 0 14 14" fill="none" xmlns="http://www.w3.org/2000/svg">
<g clip-path="url(#clip0_2746_377)">
<path d="M4 8C5.10457 8 6 8.89543 6 10V11C6 12.1046 5.10457 13 4 13H3C1.89543 13 1 12.1046 1 11V10C1 8.89543 1.89543 8 3 8H4ZM11 8C12.1046 8 13 8.89543 13 10V11C13 12.1046 12.1046 13 11 13H10C8.89543 13 8 12.1046 8 11V10C8 8.89543 8.89543 8 10 8H11ZM4 1C5.10457 1 6 1.89543 6 3V4C6 5.10457 5.10457 6 4 6H3C1.89543 6 1 5.10457 1 4V3C1 1.89543 1.89543 1 3 1H4ZM11 1C12.1046 1 13 1.89543 13 3V4C13 5.10457 12.1046 6 11 6H10C8.89543 6 8 5.10457 8 4V3C8 1.89543 8.89543 1 10 1H11Z" fill="currentColor"/>
</g>
<defs>
<clipPath id="clip0_2746_377">
<rect width="14" height="14" fill="white"/>
</clipPath>
</defs>
</svg>
