<svg width="14" height="14" viewBox="0 0 14 14" fill="none" xmlns="http://www.w3.org/2000/svg">
<g clip-path="url(#clip0_2746_363)">
<path d="M11.5 10C12.3284 10 13 10.6716 13 11.5C13 12.3284 12.3284 13 11.5 13H2.5C1.67157 13 1 12.3284 1 11.5C1 10.6716 1.67157 10 2.5 10H11.5ZM11.5 5.5C12.3284 5.5 13 6.17157 13 7C13 7.82843 12.3284 8.5 11.5 8.5H2.5C1.67157 8.5 1 7.82843 1 7C1 6.17157 1.67157 5.5 2.5 5.5H11.5ZM11.5 1C12.3284 1 13 1.67157 13 2.5C13 3.32843 12.3284 4 11.5 4H2.5C1.67157 4 1 3.32843 1 2.5C1 1.67157 1.67157 1 2.5 1H11.5Z" fill="currentColor"/>
</g>
<defs>
<clipPath id="clip0_2746_363">
<rect width="14" height="14" fill="white"/>
</clipPath>
</defs>
</svg>
