<svg width="14" height="14" viewBox="0 0 14 14" fill="currentColor" xmlns="http://www.w3.org/2000/svg">
<path d="M12 10C12 10.5523 11.5523 11 11 11H3C2.44772 11 2 10.5523 2 10V6.42915C2 6.23669 2.20835 6.11641 2.37502 6.21266L6.54395 8.62012C6.64258 8.67706 6.75256 8.69416 6.85742 8.68066C6.9449 8.6822 7.03392 8.66303 7.11523 8.61621L11.625 6.01241C11.7917 5.91619 12 6.03647 12 6.22892V10ZM11 3C11.5523 3 12 3.44772 12 4V4.35196C12 4.53059 11.9047 4.69565 11.75 4.78496L7.07621 7.48356C6.92149 7.5729 6.73086 7.57289 6.57615 7.48354L2.24995 4.98517C2.09528 4.89584 2 4.7308 2 4.55218V4C2 3.44772 2.44772 3 3 3H11Z" fill="currentColor"/>
</svg>
