<svg width="14" height="14" viewBox="0 0 14 14" fill="none" xmlns="http://www.w3.org/2000/svg">
<path d="M5.96939 1.47873C8.30999 1.47898 10.2085 3.3764 10.2086 5.71701C10.2086 6.655 9.90318 7.52274 9.38736 8.22482L11.9762 10.8137C12.3664 11.2042 12.3665 11.8383 11.9762 12.2287C11.5859 12.6189 10.9527 12.6186 10.5622 12.2287L7.84732 9.51877C7.28155 9.79875 6.64338 9.9562 5.96939 9.95627C3.62866 9.95608 1.73118 8.05777 1.73111 5.71701C1.7313 3.37636 3.62874 1.47891 5.96939 1.47873ZM5.96939 3.15549C4.55483 3.1556 3.4079 4.30243 3.40787 5.71701C3.40787 7.13162 4.55481 8.27842 5.96939 8.27853C7.38407 8.27853 8.53091 7.13169 8.53091 5.71701C8.53088 4.30236 7.38405 3.15549 5.96939 3.15549Z" fill="currentColor" />
</svg>
