<svg width="14" height="14" viewBox="0 0 14 14" fill="currentColor" xmlns="http://www.w3.org/2000/svg">
<path d="M10.0527 0.292747C10.4432 -0.0975823 11.0763 -0.0975823 11.4668 0.292747L13.709 2.53593C13.8815 2.70859 13.9781 2.92854 13.998 3.15408C14.0253 3.44077 13.9285 3.73727 13.709 3.95682L11.4668 6.2C11.0764 6.58985 10.4431 6.58994 10.0527 6.2C9.66246 5.80961 9.66275 5.17641 10.0527 4.78594L10.5879 4.24978H4C3.17163 4.24978 2.5 4.92141 2.5 5.74978C2.5 6.30181 2.05209 6.74978 1.5 6.74978C0.947906 6.74978 0.5 6.30181 0.5 5.74978C0.5 3.8167 2.06706 2.24978 4 2.24978H10.5947L10.0527 1.70682C9.66249 1.31641 9.66265 0.683259 10.0527 0.292747Z"/>
<path d="M3.94727 13.7071C3.55678 14.0974 2.92369 14.0974 2.5332 13.7071L0.291016 11.4639C0.118457 11.2912 0.0219004 11.0713 0.00195347 10.8457C-0.0253121 10.5591 0.0715434 10.2626 0.291016 10.043L2.5332 7.79978C2.92363 7.40993 3.55688 7.40984 3.94727 7.79978C4.33754 8.19017 4.33725 8.82337 3.94727 9.21384L3.41211 9.75H10C10.8284 9.75 11.5 9.07837 11.5 8.25C11.5 7.69797 11.9479 7.25 12.5 7.25C13.0521 7.25 13.5 7.69797 13.5 8.25C13.5 10.1831 11.9329 11.75 10 11.75H3.40527L3.94727 12.293C4.33751 12.6834 4.33735 13.3166 3.94727 13.7071Z"/>
</svg>
