<svg width="14" height="14" viewBox="0 0 14 14" fill="none" xmlns="http://www.w3.org/2000/svg">
<g clip-path="url(#clip0_2881_1454)">
<path d="M2.70729 1.34297C2.74446 1.03492 3.13517 0.898752 3.35575 1.11696L4.40475 2.15465C4.4941 2.24303 4.62532 2.27971 4.75236 2.25183L6.24398 1.92446C6.55764 1.85562 6.80242 2.16947 6.65026 2.44536L5.92661 3.75737C5.86498 3.86912 5.86609 4.00209 5.92955 4.10962L6.67465 5.37221C6.83134 5.63771 6.59192 5.96784 6.27729 5.92015L4.78105 5.69333C4.65361 5.67401 4.52308 5.7195 4.43526 5.81385L3.40414 6.92154C3.18731 7.15446 2.79456 7.04465 2.75228 6.73928L2.55119 5.28709C2.53407 5.16341 2.45228 5.05855 2.33455 5.00932L0.952173 4.43133C0.661487 4.30979 0.65817 3.91178 0.946667 3.77075L2.31863 3.10007C2.43548 3.04294 2.51547 2.93264 2.53053 2.80788L2.70729 1.34297Z" fill="currentColor"/>
<path d="M10.7259 3.0363C10.9624 2.83546 11.3416 3.00089 11.3553 3.31086L11.4204 4.78496C11.426 4.91051 11.4974 5.02656 11.6095 5.09238L12.9267 5.86523C13.2036 6.02774 13.1701 6.42435 12.8711 6.52348L11.4488 6.99493C11.3277 7.03508 11.2382 7.13343 11.2117 7.25546L10.901 8.68821C10.8357 8.98949 10.4357 9.06918 10.2372 8.82048L9.29311 7.63775C9.2127 7.53701 9.086 7.48175 8.95746 7.49134L7.44833 7.60398C7.13098 7.62767 6.91731 7.28032 7.09368 7.02747L7.93243 5.82506C8.00387 5.72265 8.01506 5.59015 7.96209 5.47405L7.34007 4.11091C7.20928 3.82427 7.47717 3.52991 7.7847 3.62234L9.24718 4.06194C9.37174 4.09938 9.50537 4.07276 9.60116 3.99141L10.7259 3.0363Z" fill="currentColor"/>
<path d="M5.23119 13.3555C5.01415 13.5773 4.6213 13.4474 4.57917 13.14L4.37879 11.6782C4.36172 11.5537 4.27996 11.4447 4.16221 11.3894L2.7796 10.741C2.48887 10.6046 2.48576 10.2066 2.77445 10.0804L4.14732 9.48016C4.26425 9.42904 4.34433 9.32288 4.35946 9.19894L4.53708 7.74369C4.57443 7.43768 4.96537 7.32155 5.18592 7.55094L6.23478 8.64185C6.32411 8.73477 6.45536 8.77815 6.58247 8.75678L8.07485 8.50585C8.38867 8.45308 8.63338 8.77931 8.48101 9.0473L7.75637 10.3217C7.69465 10.4303 7.69569 10.5633 7.75911 10.674L8.50383 11.9742C8.66043 12.2476 8.42074 12.5653 8.10601 12.5015L6.6093 12.1983C6.48183 12.1725 6.35122 12.2113 6.26331 12.3011L5.23119 13.3555Z" fill="currentColor"/>
</g>
<defs>
<clipPath id="clip0_2881_1454">
<rect width="14" height="14" fill="white"/>
</clipPath>
</defs>
</svg>
