<svg width="14" height="14" viewBox="0 0 14 14" fill="none" xmlns="http://www.w3.org/2000/svg">
<path d="M13.16 3.95C13.02 3.42 12.6 3.0 12.07 2.86C11.11 2.6 7 2.6 7 2.6C7 2.6 2.89 2.6 1.93 2.86C1.4 3.0 0.98 3.42 0.84 3.95C0.58 4.91 0.58 7.0 0.58 7.0C0.58 7.0 0.58 9.09 0.84 10.05C0.98 10.58 1.4 11.0 1.93 11.14C2.89 11.4 7 11.4 7 11.4C7 11.4 11.11 11.4 12.07 11.14C12.6 11.0 13.02 10.58 13.16 10.05C13.42 9.09 13.42 7.0 13.42 7.0C13.42 7.0 13.42 4.91 13.16 3.95ZM5.72 9.02V4.98L9.18 7.0L5.72 9.02Z" fill="currentColor"/>
</svg>
